<svg width="108.000000" height="112.000000" viewBox="0 0 108 112" fill="none" xmlns="http://www.w3.org/2000/svg" xmlns:xlink="http://www.w3.org/1999/xlink">
	<desc>
			Created with Pixso.
	</desc>
	<defs/>
	<ellipse id="Ellipse 111" cx="53.293579" cy="55.504379" rx="53.737217" ry="55.646587" fill="#37383A" fill-opacity="1.000000"/>
	<path id="Vector" d="M53.61 51.41C62.96 51.41 70.54 43.71 70.54 34.2C70.54 24.7 62.96 17 53.61 17C44.27 17 36.69 24.7 36.69 34.2C36.69 43.71 44.27 51.41 53.61 51.41ZM60.32 57.87L46.91 57.87C34.26 57.87 24 68.3 24 81.17C24 83.74 26.05 85.83 28.58 85.83L78.65 85.83C81.18 85.83 83.23 83.75 83.23 81.17C83.23 68.3 72.97 57.87 60.32 57.87Z" fill="#FFD132" fill-opacity="1.000000" fill-rule="nonzero"/>
</svg>
