<svg width="41.000000" height="41.000000" viewBox="0 0 41 41" fill="none" xmlns="http://www.w3.org/2000/svg" xmlns:xlink="http://www.w3.org/1999/xlink">
	<desc>
			Created with Pixso.
	</desc>
	<defs/>
	<ellipse id="Ellipse 111" cx="20.088623" cy="20.052826" rx="20.088680" ry="20.052824" fill="#FFD132" fill-opacity="1.000000"/>
	<path id="Vector" d="M20.21 18.58C23.7 18.58 26.53 15.8 26.53 12.37C26.53 8.95 23.7 6.17 20.21 6.17C16.71 6.17 13.88 8.95 13.88 12.37C13.88 15.8 16.71 18.58 20.21 18.58ZM22.71 20.9L17.7 20.9C12.97 20.9 9.13 24.66 9.13 29.3C9.13 30.23 9.9 30.98 10.85 30.98L29.57 30.98C30.51 30.98 31.28 30.23 31.28 29.3C31.28 24.66 27.44 20.9 22.71 20.9Z" fill="#37383A" fill-opacity="1.000000" fill-rule="nonzero"/>
</svg>
